<?xml version="1.0" encoding="UTF-8"?>
<svg xmlns="http://www.w3.org/2000/svg" xmlns:xlink="http://www.w3.org/1999/xlink" width="77px" height="15px" viewBox="0 0 78 15" version="1.1">
<defs>
<clipPath id="clip1">
  <path d="M 70.914062 1 L 78 1 L 78 14 L 70.914062 14 Z M 70.914062 1 "/>
</clipPath>
<clipPath id="clip2">
  <path d="M 70.914062 0 L 78 0 L 78 14.992188 L 70.914062 14.992188 Z M 70.914062 0 "/>
</clipPath>
</defs>
<g id="surface1">
<path style="fill-rule:nonzero;fill:rgb(10.196078%,10.196078%,10.196078%);fill-opacity:1;stroke-width:1;stroke-linecap:butt;stroke-linejoin:miter;stroke:rgb(10.196078%,10.196078%,10.196078%);stroke-opacity:1;stroke-miterlimit:10;" d="M 103.484425 21.404323 L 125.005759 65.23375 C 126.076472 67.475938 128.217899 69.024115 130.680539 69.344427 L 178.969702 76.337917 C 181.860627 76.711615 184.323267 78.686875 185.233373 81.462917 C 186.14348 84.238958 185.340445 87.281927 183.252554 89.257188 L 148.240234 123.263698 C 146.473558 125.025417 145.670523 127.481146 146.098808 129.936875 L 154.343299 178.090521 C 154.82512 180.866563 153.700871 183.69599 151.398838 185.404323 C 149.096805 187.059271 146.045272 187.326198 143.475561 185.991563 L 100.272286 163.30276 C 98.077324 162.128281 95.454077 162.128281 93.259115 163.30276 L 50.055839 185.991563 C 47.539663 187.326198 44.434595 187.112656 42.132562 185.404323 C 39.830529 183.749375 38.652744 180.919948 39.134565 178.090521 L 47.379056 129.936875 C 47.807342 127.481146 47.004307 125.025417 45.23763 123.263698 L 10.22531 89.257188 C 8.190956 87.281927 7.441456 84.292344 8.351562 81.569688 C 9.208133 78.847031 11.563702 76.871771 14.401092 76.444688 L 62.797326 69.344427 C 65.259966 69.024115 67.347857 67.475938 68.472105 65.23375 L 89.99344 21.404323 C 91.278295 18.841823 93.901542 17.24026 96.738932 17.24026 C 99.629858 17.24026 102.253105 18.841823 103.484425 21.404323 Z M 103.484425 21.404323 " transform="matrix(0.0729654,0,0,0.0731707,0,0.00804878)"/>
<path style="fill-rule:nonzero;fill:rgb(10.196078%,10.196078%,10.196078%);fill-opacity:1;stroke-width:1;stroke-linecap:butt;stroke-linejoin:miter;stroke:rgb(10.196078%,10.196078%,10.196078%);stroke-opacity:1;stroke-miterlimit:10;" d="M 332.991787 21.404323 L 354.513121 65.23375 C 355.63737 67.475938 357.72526 69.024115 360.187901 69.344427 L 408.530599 76.337917 C 411.367989 76.711615 413.777093 78.74026 414.6872 81.516302 C 415.597306 84.238958 414.794271 87.281927 412.70638 89.257188 L 377.69406 123.370469 C 375.927384 125.078802 375.124349 127.587917 375.552634 129.99026 L 383.850661 177.98375 C 384.386018 180.813177 383.261769 183.69599 380.9062 185.404323 C 378.604167 187.112656 375.552634 187.326198 372.982923 185.991563 L 329.779647 163.30276 C 327.584685 162.128281 324.961438 162.128281 322.766476 163.30276 L 279.402594 185.991563 C 276.886418 187.326198 273.834886 187.112656 271.479317 185.404323 C 269.177284 183.749375 268.053035 180.919948 268.534856 178.090521 L 276.779347 129.936875 C 277.154097 127.481146 276.404597 125.025417 274.637921 123.263698 L 239.625601 89.257188 C 237.591246 87.281927 236.841747 84.292344 237.698317 81.569688 C 238.608423 78.847031 240.963992 76.871771 243.801382 76.444688 L 292.144081 69.451198 C 294.553185 69.0775 296.694611 67.582708 297.765325 65.340521 L 319.286659 21.564479 C 320.517979 18.895208 323.194762 17.186875 326.085687 17.13349 C 329.030148 17.13349 331.706931 18.788438 332.938251 21.457708 Z M 332.991787 21.404323 " transform="matrix(0.0729654,0,0,0.0731707,0,0.00804878)"/>
<path style="fill-rule:nonzero;fill:rgb(10.196078%,10.196078%,10.196078%);fill-opacity:1;stroke-width:1;stroke-linecap:butt;stroke-linejoin:miter;stroke:rgb(10.196078%,10.196078%,10.196078%);stroke-opacity:1;stroke-miterlimit:10;" d="M 547.776843 21.404323 L 569.298177 65.23375 C 570.422426 67.475938 572.563852 69.024115 575.026492 69.344427 L 623.315655 76.337917 C 626.206581 76.711615 628.615685 78.686875 629.525791 81.462917 C 630.435897 84.238958 629.686398 87.281927 627.598508 89.257188 L 592.586188 123.370469 C 590.819511 125.078802 590.016476 127.587917 590.444762 129.99026 L 598.689253 178.143906 C 599.171074 180.973333 597.993289 183.80276 595.691256 185.511094 C 593.389223 187.166042 590.33769 187.379583 587.767979 186.044948 L 544.564704 163.356146 C 542.369742 162.181667 539.746494 162.181667 537.551532 163.356146 L 494.294722 185.991563 C 491.778546 187.326198 488.727013 187.112656 486.42498 185.404323 C 484.069411 183.749375 482.945162 180.919948 483.426983 178.090521 L 491.671474 129.936875 C 492.09976 127.481146 491.296725 125.025417 489.530048 123.263698 L 454.517728 89.257188 C 452.483373 87.281927 451.733874 84.292344 452.590445 81.569688 C 453.500551 78.847031 455.85612 76.871771 458.69351 76.444688 L 507.036208 69.451198 C 509.445313 69.0775 511.586739 67.582708 512.657452 65.340521 L 534.232322 21.564479 C 535.463642 18.948594 538.086889 17.24026 540.977815 17.24026 C 543.86874 17.186875 546.491987 18.841823 547.776843 21.457708 Z M 547.776843 21.404323 " transform="matrix(0.0729654,0,0,0.0731707,0,0.00804878)"/>
<path style="fill-rule:nonzero;fill:rgb(10.196078%,10.196078%,10.196078%);fill-opacity:1;stroke-width:1;stroke-linecap:butt;stroke-linejoin:miter;stroke:rgb(10.196078%,10.196078%,10.196078%);stroke-opacity:1;stroke-miterlimit:10;" d="M 762.66897 21.404323 L 784.190304 65.23375 C 785.314553 67.475938 787.402444 69.024115 789.865084 69.344427 L 838.207782 76.337917 C 841.098708 76.711615 843.507813 78.686875 844.417919 81.462917 C 845.328025 84.238958 844.578526 87.281927 842.437099 89.257188 L 807.42478 123.263698 C 805.711639 125.025417 804.908604 127.481146 805.283353 129.936875 L 813.58138 178.090521 C 814.009665 180.866563 812.885417 183.642604 810.583383 185.350938 C 808.334886 187.005885 805.283353 187.272813 802.767177 185.991563 L 759.563902 163.30276 C 757.36894 162.128281 754.745693 162.128281 752.550731 163.30276 L 709.240385 185.991563 C 706.670673 187.326198 703.619141 187.112656 701.317107 185.404323 C 699.015074 183.749375 697.83729 180.919948 698.319111 178.090521 L 706.563602 129.936875 C 706.991887 127.481146 706.188852 125.025417 704.422175 123.263698 L 669.409856 89.257188 C 667.321965 87.281927 666.51893 84.292344 667.429036 81.516302 C 668.285607 78.74026 670.694712 76.765 673.532101 76.337917 L 721.8748 69.344427 C 724.33744 69.024115 726.425331 67.475938 727.549579 65.23375 L 749.070913 21.457708 C 750.302234 18.788438 752.979016 17.13349 755.869942 17.13349 C 758.760867 17.13349 761.43765 18.788438 762.66897 21.457708 Z M 762.66897 21.404323 " transform="matrix(0.0729654,0,0,0.0731707,0,0.00804878)"/>
<path style="fill-rule:nonzero;fill:rgb(10.196078%,10.196078%,10.196078%);fill-opacity:1;stroke-width:1;stroke-linecap:butt;stroke-linejoin:miter;stroke:rgb(10.196078%,10.196078%,10.196078%);stroke-opacity:1;stroke-miterlimit:10;" d="M 977.561098 21.404323 L 999.135968 65.23375 C 1000.206681 67.475938 1002.348107 68.970729 1004.757212 69.344427 L 1053.09991 76.337917 C 1055.990835 76.711615 1058.39994 78.686875 1059.310046 81.462917 C 1060.220152 84.238958 1059.470653 87.281927 1057.329227 89.257188 L 1022.370443 123.370469 C 1020.603766 125.078802 1019.800731 127.587917 1020.175481 129.99026 L 1028.473508 178.143906 C 1028.955329 180.973333 1027.777544 183.80276 1025.475511 185.511094 C 1023.173478 187.166042 1020.068409 187.379583 1017.552234 186.044948 L 974.348958 163.356146 C 972.153996 162.181667 969.530749 162.181667 967.335787 163.356146 L 924.132512 185.991563 C 921.616336 187.326198 918.564804 187.112656 916.209235 185.404323 C 913.907202 183.749375 912.729417 180.919948 913.264774 178.090521 L 921.509265 129.936875 C 921.884014 127.481146 921.08098 125.025417 919.314303 123.263698 L 884.355519 89.257188 C 882.267628 87.281927 881.571665 84.292344 882.428235 81.569688 C 883.338341 78.847031 885.69391 76.871771 888.5313 76.444688 L 936.820463 69.451198 C 939.283103 69.130885 941.424529 67.582708 942.495242 65.340521 L 964.016577 21.511094 C 965.247897 18.895208 967.871144 17.24026 970.762069 17.24026 C 973.652995 17.186875 976.276242 18.841823 977.561098 21.404323 Z M 977.561098 21.404323 " transform="matrix(0.0729654,0,0,0.0731707,0,0.00804878)"/>
<g clip-path="url(#clip1)" clip-rule="nonzero">
<path style=" stroke:none;fill-rule:nonzero;fill:rgb(100%,100%,100%);fill-opacity:1;" d="M 71.328125 1.574219 L 72.902344 4.78125 C 72.980469 4.945312 73.136719 5.054688 73.3125 5.082031 L 76.839844 5.59375 C 77.050781 5.621094 77.226562 5.765625 77.292969 5.96875 C 77.359375 6.171875 77.304688 6.394531 77.148438 6.539062 L 74.597656 9.035156 C 74.46875 9.160156 74.410156 9.34375 74.4375 9.519531 L 75.042969 13.042969 C 75.078125 13.25 74.992188 13.457031 74.824219 13.582031 C 74.65625 13.703125 74.429688 13.71875 74.246094 13.621094 L 71.09375 11.960938 C 70.933594 11.875 70.742188 11.875 70.582031 11.960938 L 67.429688 13.617188 C 67.246094 13.714844 67.023438 13.699219 66.851562 13.574219 C 66.683594 13.453125 66.597656 13.246094 66.636719 13.039062 L 67.238281 9.515625 C 67.265625 9.335938 67.207031 9.15625 67.078125 9.027344 L 64.527344 6.539062 C 64.375 6.394531 64.324219 6.175781 64.386719 5.976562 C 64.453125 5.777344 64.625 5.632812 64.832031 5.601562 L 68.355469 5.089844 C 68.535156 5.066406 68.691406 4.953125 68.769531 4.789062 L 70.339844 1.582031 C 70.429688 1.390625 70.621094 1.269531 70.832031 1.269531 C 71.042969 1.265625 71.234375 1.386719 71.328125 1.574219 Z M 71.328125 1.574219 "/>
</g>
<g clip-path="url(#clip2)" clip-rule="nonzero">
<path style="fill:none;stroke-width:1;stroke-linecap:butt;stroke-linejoin:miter;stroke:rgb(10.196078%,10.196078%,10.196078%);stroke-opacity:1;stroke-miterlimit:10;" d="M 977.561098 21.404323 L 999.135968 65.23375 C 1000.206681 67.475938 1002.348107 68.970729 1004.757212 69.344427 L 1053.09991 76.337917 C 1055.990835 76.711615 1058.39994 78.686875 1059.310046 81.462917 C 1060.220152 84.238958 1059.470653 87.281927 1057.329227 89.257188 L 1022.370443 123.370469 C 1020.603766 125.078802 1019.800731 127.587917 1020.175481 129.99026 L 1028.473508 178.143906 C 1028.955329 180.973333 1027.777544 183.80276 1025.475511 185.511094 C 1023.173478 187.166042 1020.068409 187.379583 1017.552234 186.044948 L 974.348958 163.356146 C 972.153996 162.181667 969.530749 162.181667 967.335787 163.356146 L 924.132512 185.991563 C 921.616336 187.326198 918.564804 187.112656 916.209235 185.404323 C 913.907202 183.749375 912.729417 180.919948 913.264774 178.090521 L 921.509265 129.936875 C 921.884014 127.481146 921.08098 125.025417 919.314303 123.263698 L 884.355519 89.257188 C 882.267628 87.281927 881.571665 84.292344 882.428235 81.569688 C 883.338341 78.847031 885.69391 76.871771 888.5313 76.444688 L 936.820463 69.451198 C 939.283103 69.130885 941.424529 67.582708 942.495242 65.340521 L 964.016577 21.511094 C 965.247897 18.895208 967.871144 17.24026 970.762069 17.24026 C 973.652995 17.186875 976.276242 18.841823 977.561098 21.404323 Z M 977.561098 21.404323 " transform="matrix(0.0729654,0,0,0.0731707,0,0.00804878)"/>
</g>
</g>
</svg>
